<?xml version="1.0" encoding="UTF-8"?>
<!DOCTYPE svg PUBLIC "-//W3C//DTD SVG 1.1//EN" "http://www.w3.org/Graphics/SVG/1.1/DTD/svg11.dtd">
<!-- Creator: CorelDRAW (Versión de evaluación) -->
<svg xmlns="http://www.w3.org/2000/svg" xml:space="preserve" width="350mm" height="297mm" version="1.1" style="shape-rendering:geometricPrecision; text-rendering:geometricPrecision; image-rendering:optimizeQuality; fill-rule:evenodd; clip-rule:evenodd"
viewBox="0 0 35000 29700"
 xmlns:xlink="http://www.w3.org/1999/xlink"
 xmlns:xodm="http://www.corel.com/coreldraw/odm/2003">
 <defs>
  <style type="text/css">
   <![CDATA[
    .str0 {stroke:black;stroke-width:7.62;stroke-linejoin:bevel;stroke-miterlimit:22.9256}
    .fil0 {fill:none}
    .fil1 {fill:black}
   ]]>
  </style>
 </defs>
 <g id="Capa_x0020_1">
  <metadata id="CorelCorpID_0Corel-Layer"/>
  <polygon class="fil0 str0" points="26803.84,9779.39 26803.84,10079.39 28290.82,10079.39 28290.82,9779.39 28140.82,9779.39 28140.82,9529.39 28740.82,9529.39 28740.82,9779.39 28590.82,9779.39 28590.82,10079.39 31864.92,10079.39 26639.59,7915.6 26524.81,8192.78 26663.4,8250.16 26567.75,8481.14 26013.4,8251.59 26109.05,8020.61 26247.63,8078 26362.41,7800.82 24716.82,7119.39 24716.82,10079.39 26503.84,10079.39 26503.84,9779.39 26353.84,9779.39 26353.84,9529.39 26953.84,9529.39 26953.84,9779.39 "/>
  <polygon class="fil0 str0" points="22053.09,7456.39 22053.09,7156.39 20566.11,7156.39 20566.11,7456.39 20716.11,7456.39 20716.11,7706.39 20116.11,7706.39 20116.11,7456.39 20266.11,7456.39 20266.11,7156.39 16992.01,7156.39 22217.34,9320.18 22332.12,9043 22193.53,8985.62 22289.18,8754.64 22843.53,8984.19 22747.88,9215.17 22609.3,9157.78 22494.52,9434.96 24140.11,10116.39 24140.11,7156.39 22353.09,7156.39 22353.09,7456.39 22503.09,7456.39 22503.09,7706.39 21903.09,7706.39 21903.09,7456.39 "/>
  <path class="fil0 str0" d="M31074.18 12388.53c0,-82.84 -67.16,-150 -150,-150 -82.84,0 -150,67.16 -150,150 0,82.84 67.16,150 150,150 82.84,0 150,-67.16 150,-150z"/>
  <path class="fil0 str0" d="M17024.18 13138.53c0,-82.84 -67.16,-150 -150,-150 -82.84,0 -150,67.16 -150,150 0,82.84 67.16,150 150,150 82.84,0 150,-67.16 150,-150z"/>
  <polygon class="fil0 str0" points="20149.18,13868.53 20149.18,13568.53 19999.18,13568.53 19999.18,13318.53 20599.18,13318.53 20599.18,13568.53 20449.18,13568.53 20449.18,13868.53 27349.18,13868.53 27349.18,13568.53 27199.18,13568.53 27199.18,13318.53 27799.18,13318.53 27799.18,13568.53 27649.18,13568.53 27649.18,13868.53 31099.18,13868.53 31099.18,10908.53 24049.18,10908.53 24049.18,11208.53 24199.18,11208.53 24199.18,11458.53 23599.18,11458.53 23599.18,11208.53 23749.18,11208.53 23749.18,10908.53 16699.18,10908.53 16699.18,13868.53 "/>
  <polygon class="fil0 str0" points="18713.89,6556.29 18713.89,6256.29 18563.89,6256.29 18563.89,6006.29 19163.89,6006.29 19163.89,6256.29 19013.89,6256.29 19013.89,6556.29 20933.89,6556.29 20933.89,5976.29 20633.89,5976.29 20633.89,6126.29 20383.89,6126.29 20383.89,5526.29 20633.89,5526.29 20633.89,5676.29 20933.89,5676.29 20933.89,3596.29 20733.89,3596.29 20733.89,3896.29 20883.89,3896.29 20883.89,4146.29 20283.89,4146.29 20283.89,3896.29 20433.89,3896.29 20433.89,3596.29 20233.89,3596.29 20233.89,5096.29 17584.69,5096.29 17584.69,3596.29 17284.69,3596.29 17284.69,6556.29 "/>
  <polygon class="fil0 str0" points="23296.37,6260.48 23296.37,6560.48 24970.97,6560.48 24970.97,3600.48 23541.77,3600.48 23541.77,3900.48 23691.77,3900.48 23691.77,4150.48 23091.77,4150.48 23091.77,3900.48 23241.77,3900.48 23241.77,3600.48 21321.77,3600.48 21321.77,4930.48 21621.77,4930.48 21621.77,4780.48 21871.77,4780.48 21871.77,5380.48 21621.77,5380.48 21621.77,5230.48 21321.77,5230.48 21321.77,6560.48 22996.37,6560.48 22996.37,6260.48 22846.37,6260.48 22846.37,6010.48 23446.37,6010.48 23446.37,6260.48 "/>
  <g id="_2227677234848">
   <path class="fil1 str0" d="M23235.89 22342.14c0,-5.52 -4.48,-10 -10,-10 -5.52,0 -10,4.48 -10,10 0,5.52 4.48,10 10,10 5.52,0 10,-4.48 10,-10z"/>
   <line class="fil0 str0" x1="30425.89" y1="22342.14" x2="16025.89" y2= "22342.14" />
   <line class="fil0 str0" x1="30425.89" y1="14602.94" x2="30425.89" y2= "22342.14" />
   <line class="fil0 str0" x1="16025.89" y1="14602.94" x2="30425.89" y2= "14602.94" />
   <line class="fil0 str0" x1="16025.89" y1="22342.14" x2="16025.89" y2= "14602.94" />
  </g>
  <g id="_2227714705856">
   <path class="fil1 str0" d="M23235.89 22342.14c0,-5.52 -4.48,-10 -10,-10 -5.52,0 -10,4.48 -10,10 0,5.52 4.48,10 10,10 5.52,0 10,-4.48 10,-10z"/>
   <line class="fil0 str0" x1="26125.89" y1="16827.14" x2="28745.89" y2= "16827.14" />
   <line class="fil0 str0" x1="28745.89" y1="19727.14" x2="28745.89" y2= "20257.14" />
   <path class="fil0 str0" d="M26560.89 19942.14c0,-82.84 -67.16,-150 -150,-150 -82.84,0 -150,67.16 -150,150 0,82.84 67.16,150 150,150 82.84,0 150,-67.16 150,-150z"/>
   <line class="fil0 str0" x1="23325.89" y1="15042.14" x2="23325.89" y2= "21542.14" />
   <line class="fil0 str0" x1="26625.89" y1="17627.14" x2="26125.89" y2= "17627.14" />
   <line class="fil0 str0" x1="26625.89" y1="19727.14" x2="26125.89" y2= "19727.14" />
   <line class="fil0 str0" x1="23710.89" y1="16852.94" x2="23710.89" y2= "20092.14" />
   <line class="fil0 str0" x1="25745.89" y1="17537.94" x2="24745.89" y2= "17537.94" />
   <line class="fil0 str0" x1="25845.89" y1="19967.94" x2="24845.89" y2= "19967.94" />
   <line class="fil0 str0" x1="24745.89" y1="17537.94" x2="24745.89" y2= "17337.94" />
   <line class="fil0 str0" x1="24845.89" y1="19967.94" x2="24845.89" y2= "19767.94" />
   <line class="fil0 str0" x1="28745.89" y1="16827.14" x2="28745.89" y2= "20257.14" />
   <line class="fil0 str0" x1="25145.89" y1="16937.94" x2="25345.89" y2= "16937.94" />
   <line class="fil0 str0" x1="30425.89" y1="22342.14" x2="30425.89" y2= "14602.94" />
   <line class="fil0 str0" x1="26125.89" y1="20257.14" x2="26125.89" y2= "16827.14" />
   <line class="fil0 str0" x1="26125.89" y1="16827.14" x2="26625.89" y2= "16827.14" />
   <line class="fil0 str0" x1="30425.89" y1="14602.94" x2="16025.89" y2= "14602.94" />
   <line class="fil0 str0" x1="25145.89" y1="17937.94" x2="25145.89" y2= "16937.94" />
   <line class="fil0 str0" x1="25845.89" y1="19767.94" x2="25845.89" y2= "19967.94" />
   <line class="fil0 str0" x1="26125.89" y1="17627.14" x2="26125.89" y2= "16827.14" />
   <line class="fil0 str0" x1="28245.89" y1="16827.14" x2="28245.89" y2= "17627.14" />
   <line class="fil0 str0" x1="25345.89" y1="17937.94" x2="25145.89" y2= "17937.94" />
   <line class="fil0 str0" x1="16025.89" y1="14602.94" x2="16025.89" y2= "22342.14" />
   <line class="fil0 str0" x1="24380.89" y1="20092.14" x2="24380.89" y2= "16852.94" />
   <line class="fil0 str0" x1="24380.89" y1="16852.94" x2="23710.89" y2= "16852.94" />
   <line class="fil0 str0" x1="25745.89" y1="17337.94" x2="25745.89" y2= "17537.94" />
   <line class="fil0 str0" x1="23325.89" y1="21542.14" x2="16825.89" y2= "21542.14" />
   <line class="fil0 str0" x1="16025.89" y1="22342.14" x2="30425.89" y2= "22342.14" />
   <line class="fil0 str0" x1="24745.89" y1="17337.94" x2="25745.89" y2= "17337.94" />
   <line class="fil0 str0" x1="16825.89" y1="15042.14" x2="23325.89" y2= "15042.14" />
   <line class="fil0 str0" x1="24845.89" y1="19767.94" x2="25845.89" y2= "19767.94" />
   <line class="fil0 str0" x1="28745.89" y1="20257.14" x2="26125.89" y2= "20257.14" />
   <line class="fil0 str0" x1="28745.89" y1="16827.14" x2="28245.89" y2= "16827.14" />
   <line class="fil0 str0" x1="28245.89" y1="17627.14" x2="28745.89" y2= "17627.14" />
   <line class="fil0 str0" x1="23710.89" y1="20092.14" x2="24380.89" y2= "20092.14" />
   <line class="fil0 str0" x1="28745.89" y1="17627.14" x2="28745.89" y2= "16827.14" />
   <line class="fil0 str0" x1="26125.89" y1="20257.14" x2="26625.89" y2= "20257.14" />
   <line class="fil0 str0" x1="26625.89" y1="20257.14" x2="26625.89" y2= "19727.14" />
   <line class="fil0 str0" x1="26625.89" y1="16827.14" x2="26625.89" y2= "17627.14" />
   <line class="fil0 str0" x1="28745.89" y1="20257.14" x2="28245.89" y2= "20257.14" />
   <line class="fil0 str0" x1="25345.89" y1="16937.94" x2="25345.89" y2= "17937.94" />
   <line class="fil0 str0" x1="16825.89" y1="21542.14" x2="16825.89" y2= "15042.14" />
   <line class="fil0 str0" x1="28245.89" y1="20257.14" x2="28245.89" y2= "19727.14" />
   <line class="fil0 str0" x1="26125.89" y1="19727.14" x2="26125.89" y2= "20257.14" />
   <line class="fil0 str0" x1="28245.89" y1="19727.14" x2="28745.89" y2= "19727.14" />
   <line class="fil0 str0" x1="28142.89" y1="15640.64" x2="28142.89" y2= "16040.64" />
   <line class="fil0 str0" x1="26725.89" y1="16040.64" x2="26725.89" y2= "15640.64" />
   <line class="fil0 str0" x1="25860.89" y1="21677.14" x2="25660.89" y2= "21677.14" />
   <line class="fil0 str0" x1="25660.89" y1="21677.14" x2="25660.89" y2= "20457.14" />
   <line class="fil0 str0" x1="24380.89" y1="16852.94" x2="24380.89" y2= "17352.94" />
   <line class="fil0 str0" x1="25660.89" y1="22257.14" x2="25660.89" y2= "20457.14" />
   <line class="fil0 str0" x1="22325.89" y1="20342.14" x2="23325.89" y2= "20342.14" />
   <line class="fil0 str0" x1="29210.89" y1="22257.14" x2="25660.89" y2= "22257.14" />
   <path class="fil0 str0" d="M28610.89 19942.14c0,-82.84 -67.16,-150 -150,-150 -82.84,0 -150,67.16 -150,150 0,82.84 67.16,150 150,150 82.84,0 150,-67.16 150,-150z"/>
   <line class="fil0 str0" x1="25660.89" y1="20457.14" x2="29210.89" y2= "20457.14" />
   <line class="fil0 str0" x1="24380.89" y1="17352.94" x2="23710.89" y2= "17352.94" />
   <line class="fil0 str0" x1="23710.89" y1="17352.94" x2="23710.89" y2= "16852.94" />
   <line class="fil0 str0" x1="26725.89" y1="15640.64" x2="28142.89" y2= "15640.64" />
   <path class="fil0 str0" d="M28610.89 17322.14c0,-82.84 -67.16,-150 -150,-150 -82.84,0 -150,67.16 -150,150 0,82.84 67.16,150 150,150 82.84,0 150,-67.16 150,-150z"/>
   <line class="fil0 str0" x1="29210.89" y1="20457.14" x2="29210.89" y2= "22257.14" />
   <line class="fil0 str0" x1="23710.89" y1="17352.94" x2="23710.89" y2= "16852.94" />
   <line class="fil0 str0" x1="23325.89" y1="21542.14" x2="22325.89" y2= "21542.14" />
   <line class="fil0 str0" x1="24380.89" y1="16852.94" x2="24380.89" y2= "17352.94" />
   <line class="fil0 str0" x1="22325.89" y1="21542.14" x2="22325.89" y2= "20342.14" />
   <line class="fil0 str0" x1="23325.89" y1="20342.14" x2="23325.89" y2= "21542.14" />
   <line class="fil0 str0" x1="23710.89" y1="16852.94" x2="24380.89" y2= "16852.94" />
   <line class="fil0 str0" x1="25660.89" y1="20457.14" x2="25860.89" y2= "20457.14" />
   <line class="fil0 str0" x1="23710.89" y1="16852.94" x2="24380.89" y2= "16852.94" />
   <path class="fil0 str0" d="M26560.89 17322.14c0,-82.84 -67.16,-150 -150,-150 -82.84,0 -150,67.16 -150,150 0,82.84 67.16,150 150,150 82.84,0 150,-67.16 150,-150z"/>
   <line class="fil0 str0" x1="25860.89" y1="20457.14" x2="25860.89" y2= "21677.14" />
   <line class="fil0 str0" x1="28142.89" y1="16040.64" x2="26725.89" y2= "16040.64" />
   <line class="fil0 str0" x1="24380.89" y1="17352.94" x2="23710.89" y2= "17352.94" />
  </g>
  <g id="_2227720646432">
   <path class="fil1 str0" d="M23235.89 22342.14c0,-5.52 -4.48,-10 -10,-10 -5.52,0 -10,4.48 -10,10 0,5.52 4.48,10 10,10 5.52,0 10,-4.48 10,-10z"/>
   <line class="fil0 str0" x1="25845.89" y1="19967.94" x2="24845.89" y2= "19967.94" />
   <line class="fil0 str0" x1="24845.89" y1="19967.94" x2="24845.89" y2= "19767.94" />
   <line class="fil0 str0" x1="24845.89" y1="19767.94" x2="25845.89" y2= "19767.94" />
   <line class="fil0 str0" x1="26725.89" y1="15640.64" x2="28142.89" y2= "15640.64" />
   <line class="fil0 str0" x1="25145.89" y1="17937.94" x2="25145.89" y2= "17537.94" />
   <line class="fil0 str0" x1="25145.89" y1="17537.94" x2="24745.89" y2= "17537.94" />
   <line class="fil0 str0" x1="24745.89" y1="17537.94" x2="24745.89" y2= "17337.94" />
   <line class="fil0 str0" x1="24745.89" y1="17337.94" x2="25145.89" y2= "17337.94" />
   <line class="fil0 str0" x1="25145.89" y1="17337.94" x2="25145.89" y2= "16937.94" />
   <line class="fil0 str0" x1="30425.89" y1="14602.94" x2="16025.89" y2= "14602.94" />
   <line class="fil0 str0" x1="28142.89" y1="15640.64" x2="28142.89" y2= "16040.64" />
   <line class="fil0 str0" x1="28142.89" y1="16040.64" x2="26725.89" y2= "16040.64" />
   <line class="fil0 str0" x1="25145.89" y1="16937.94" x2="25345.89" y2= "16937.94" />
   <line class="fil0 str0" x1="16025.89" y1="22342.14" x2="30425.89" y2= "22342.14" />
   <line class="fil0 str0" x1="25345.89" y1="16937.94" x2="25345.89" y2= "17337.94" />
   <line class="fil0 str0" x1="25345.89" y1="17337.94" x2="25745.89" y2= "17337.94" />
   <line class="fil0 str0" x1="25745.89" y1="17337.94" x2="25745.89" y2= "17537.94" />
   <line class="fil0 str0" x1="16025.89" y1="14602.94" x2="16025.89" y2= "22342.14" />
   <path class="fil0 str0" d="M28610.89 19942.14c0,-82.84 -67.16,-150 -150,-150 -82.84,0 -150,67.16 -150,150 0,82.84 67.16,150 150,150 82.84,0 150,-67.16 150,-150z"/>
   <line class="fil0 str0" x1="30425.89" y1="22342.14" x2="30425.89" y2= "14602.94" />
   <line class="fil0 str0" x1="26725.89" y1="16040.64" x2="26725.89" y2= "15640.64" />
   <line class="fil0 str0" x1="25845.89" y1="19767.94" x2="25845.89" y2= "19967.94" />
   <line class="fil0 str0" x1="26125.89" y1="20257.14" x2="26125.89" y2= "16827.14" />
   <line class="fil0 str0" x1="25660.89" y1="20457.14" x2="29210.89" y2= "20457.14" />
   <line class="fil0 str0" x1="16825.89" y1="15042.14" x2="23325.89" y2= "15042.14" />
   <line class="fil0 str0" x1="29210.89" y1="22257.14" x2="25660.89" y2= "22257.14" />
   <line class="fil0 str0" x1="28745.89" y1="16827.14" x2="28745.89" y2= "19727.14" />
   <line class="fil0 str0" x1="23710.89" y1="16852.94" x2="24380.89" y2= "16852.94" />
   <path class="fil0 str0" d="M30400.89 16537.74c0,-82.84 -67.16,-150 -150,-150 -82.84,0 -150,67.16 -150,150 0,82.84 67.16,150 150,150 82.84,0 150,-67.16 150,-150z"/>
   <line class="fil0 str0" x1="16825.89" y1="21542.14" x2="16825.89" y2= "15042.14" />
   <line class="fil0 str0" x1="25345.89" y1="17937.94" x2="25145.89" y2= "17937.94" />
   <line class="fil0 str0" x1="23325.89" y1="15042.14" x2="23325.89" y2= "21542.14" />
   <path class="fil0 str0" d="M16350.89 16537.74c0,-82.84 -67.16,-150 -150,-150 -82.84,0 -150,67.16 -150,150 0,82.84 67.16,150 150,150 82.84,0 150,-67.16 150,-150z"/>
   <line class="fil0 str0" x1="24380.89" y1="20092.14" x2="23710.89" y2= "20092.14" />
   <line class="fil0 str0" x1="28245.89" y1="20257.14" x2="26125.89" y2= "20257.14" />
   <line class="fil0 str0" x1="23710.89" y1="20092.14" x2="23710.89" y2= "16852.94" />
   <line class="fil0 str0" x1="25745.89" y1="17537.94" x2="25345.89" y2= "17537.94" />
   <line class="fil0 str0" x1="28245.89" y1="19727.14" x2="28245.89" y2= "20257.14" />
   <line class="fil0 str0" x1="24380.89" y1="16852.94" x2="24380.89" y2= "20092.14" />
   <line class="fil0 str0" x1="29210.89" y1="20457.14" x2="29210.89" y2= "22257.14" />
   <line class="fil0 str0" x1="25345.89" y1="17537.94" x2="25345.89" y2= "17937.94" />
   <line class="fil0 str0" x1="28745.89" y1="19727.14" x2="28245.89" y2= "19727.14" />
   <line class="fil0 str0" x1="25660.89" y1="22257.14" x2="25660.89" y2= "20457.14" />
   <line class="fil0 str0" x1="23325.89" y1="21542.14" x2="16825.89" y2= "21542.14" />
   <line class="fil0 str0" x1="26125.89" y1="16827.14" x2="28745.89" y2= "16827.14" />
  </g>
  <path class="fil0 str0" d="M9862.87 20423.69c0,-82.84 -67.16,-150 -150,-150 -82.84,0 -150,67.16 -150,150 0,82.84 67.16,150 150,150 82.84,0 150,-67.16 150,-150z"/>
  <path class="fil0 str0" d="M11649.87 6373.69c0,-82.84 -67.16,-150 -150,-150 -82.84,0 -150,67.16 -150,150 0,82.84 67.16,150 150,150 82.84,0 150,-67.16 150,-150z"/>
  <path class="fil0 str0" d="M11649.87 20423.69c0,-82.84 -67.16,-150 -150,-150 -82.84,0 -150,67.16 -150,150 0,82.84 67.16,150 150,150 82.84,0 150,-67.16 150,-150z"/>
  <path class="fil0 str0" d="M9862.87 6373.69c0,-82.84 -67.16,-150 -150,-150 -82.84,0 -150,67.16 -150,150 0,82.84 67.16,150 150,150 82.84,0 150,-67.16 150,-150z"/>
  <path class="fil0 str0" d="M9359.96 13247.34c0,-82.84 -67.16,-150 -150,-150 -82.84,0 -150,67.16 -150,150 0,82.84 67.16,150 150,150 82.84,0 150,-67.16 150,-150z"/>
  <path class="fil0 str0" d="M5068.4 18333.91c0,-82.84 -67.16,-150 -150,-150 -82.84,0 -150,67.16 -150,150 0,82.84 67.16,150 150,150 82.84,0 150,-67.16 150,-150z"/>
  <path class="fil0 str0" d="M3974.87 13398.69c0,-82.84 -67.16,-150 -150,-150 -82.84,0 -150,67.16 -150,150 0,82.84 67.16,150 150,150 82.84,0 150,-67.16 150,-150z"/>
  <path class="fil0 str0" d="M6126.27 6373.69c0,-82.84 -67.16,-150 -150,-150 -82.84,0 -150,67.16 -150,150 0,82.84 67.16,150 150,150 82.84,0 150,-67.16 150,-150z"/>
  <path class="fil0 str0" d="M4649.87 20423.69c0,-82.84 -67.16,-150 -150,-150 -82.84,0 -150,67.16 -150,150 0,82.84 67.16,150 150,150 82.84,0 150,-67.16 150,-150z"/>
  <polygon class="fil0 str0" points="14949.87,6198.69 3649.87,6198.69 3649.87,20598.69 14949.87,20598.69 "/>
 </g>
</svg>
