0
SECTION
2
HEADER
9
$INSUNITS
70
4
9
$ACADVER
1
AC1014
9
$HANDSEED
5
FFFF
0
ENDSEC
0
SECTION
2
TABLES
0
TABLE
2
VPORT
5
8
100
AcDbSymbolTable
0
ENDTAB
0
TABLE
2
LTYPE
5
5
100
AcDbSymbolTable
0
LTYPE
5
14
100
AcDbSymbolTableRecord
100
AcDbLinetypeTableRecord
2
BYBLOCK
70
0
0
LTYPE
5
15
100
AcDbSymbolTableRecord
100
AcDbLinetypeTableRecord
2
BYLAYER
70
0
0
ENDTAB
0
TABLE
2
LAYER
5
2
100
AcDbSymbolTable
70
2
0
LAYER
5
50
100
AcDbSymbolTableRecord
100
AcDbLayerTableRecord
2
0
70
0
6
CONTINUOUS
0
ENDTAB
0
TABLE
2
STYLE
5
3
100
AcDbSymbolTable
70
1
0
STYLE
5
11
100
AcDbSymbolTableRecord
100
AcDbTextStyleTableRecord
2
STANDARD
70
0
0
ENDTAB
0
TABLE
2
VIEW
5
6
100
AcDbSymbolTable
70
0
0
ENDTAB
0
TABLE
2
UCS
5
7
100
AcDbSymbolTable
70
0
0
ENDTAB
0
TABLE
2
APPID
5
9
100
AcDbSymbolTable
70
2
0
APPID
5
12
100
AcDbSymbolTableRecord
100
AcDbRegAppTableRecord
2
ACAD
70
0
0
ENDTAB
0
TABLE
2
DIMSTYLE
5
A
100
AcDbSymbolTable
70
1
0
ENDTAB
0
TABLE
2
BLOCK_RECORD
5
1
100
AcDbSymbolTable
70
1
0
BLOCK_RECORD
5
1F
100
AcDbSymbolTableRecord
100
AcDbBlockTableRecord
2
*MODEL_SPACE
0
BLOCK_RECORD
5
1B
100
AcDbSymbolTableRecord
100
AcDbBlockTableRecord
2
*PAPER_SPACE
0
ENDTAB
0
ENDSEC
0
SECTION
2
BLOCKS
0
BLOCK
5
20
100
AcDbEntity
100
AcDbBlockBegin
2
*MODEL_SPACE
0
ENDBLK
5
21
100
AcDbEntity
100
AcDbBlockEnd
0
BLOCK
5
1C
100
AcDbEntity
100
AcDbBlockBegin
2
*PAPER_SPACE
0
ENDBLK
5
1D
100
AcDbEntity
100
AcDbBlockEnd
0
ENDSEC
0
SECTION
2
ENTITIES
0
LWPOLYLINE
5
100
100
AcDbEntity
8
0
100
AcDbPolyline
90
4
70
1
43
0.0
10
72
20
0
10
-72
20
0
10
-72
20
-77.391999999999996
10
72
20
-77.391999999999996
0
LWPOLYLINE
5
101
100
AcDbEntity
8
0
100
AcDbPolyline
90
6
70
1
43
0.0
10
64
20
-73
10
-1.0000000000000009
20
-73
10
-0.99999999999999645
20
-20
10
-0.99999999999999645
20
-8
10
9.0000000000000036
20
-8
10
64
20
-8
0
LWPOLYLINE
5
102
100
AcDbEntity
8
0
100
AcDbPolyline
90
4
70
1
43
0.0
10
-4.8500000000000014
20
-22.5
10
-11.550000000000002
20
-22.5
10
-11.550000000000002
20
-54.892000000000003
10
-4.8500000000000014
20
-54.892000000000003
0
LWPOLYLINE
5
103
100
AcDbEntity
8
0
100
AcDbPolyline
90
4
70
1
43
0.0
10
-19.200000000000003
20
-54.041999999999994
10
-21.200000000000006
20
-54.041999999999994
10
-21.200000000000006
20
-44.041999999999994
10
-19.200000000000003
20
-44.041999999999994
0
LWPOLYLINE
5
104
100
AcDbEntity
8
0
100
AcDbPolyline
90
4
70
1
43
0.0
10
-15.200000000000003
20
-50.042000000000002
10
-25.199999999999999
20
-50.042000000000002
10
-25.199999999999999
20
-48.042000000000002
10
-15.200000000000003
20
-48.042000000000002
0
LWPOLYLINE
5
105
100
AcDbEntity
8
0
100
AcDbPolyline
90
4
70
1
43
0.0
10
-16.200000000000003
20
-25.741999999999994
10
-26.20000000000001
20
-25.741999999999994
10
-26.20000000000001
20
-23.74199999999999
10
-16.200000000000003
20
-23.74199999999999
0
LWPOLYLINE
5
106
100
AcDbEntity
8
0
100
AcDbPolyline
90
12
70
1
43
0.0
10
-28.999999999999993
20
-55.150000000000006
10
-55.199999999999996
20
-55.150000000000006
10
-50.199999999999996
20
-55.150000000000006
10
-50.199999999999996
20
-47.150000000000006
10
-55.199999999999996
20
-47.150000000000006
10
-55.199999999999996
20
-55.150000000000006
10
-55.199999999999996
20
-20.850000000000005
10
-50.199999999999996
20
-20.850000000000005
10
-50.199999999999996
20
-26.150000000000002
10
-55.199999999999996
20
-26.150000000000006
10
-55.199999999999996
20
-20.850000000000005
10
-28.999999999999993
20
-20.850000000000009
0
LWPOLYLINE
5
107
100
AcDbEntity
8
0
100
AcDbPolyline
90
4
70
1
43
0.0
10
-28.999999999999993
20
-55.150000000000006
10
-33.999999999999993
20
-55.150000000000006
10
-33.999999999999993
20
-47.150000000000006
10
-28.999999999999993
20
-47.150000000000006
0
LWPOLYLINE
5
108
100
AcDbEntity
8
0
100
AcDbPolyline
90
4
70
1
43
0.0
10
-28.999999999999993
20
-20.850000000000009
10
-33.999999999999993
20
-20.850000000000009
10
-33.999999999999993
20
-26.150000000000013
10
-28.999999999999993
20
-26.150000000000013
0
CIRCLE
5
109
100
AcDbEntity
8
0
100
AcDbCircle
10
-31.849999999999994
20
-24.000000000000007
30
0
40
1.5000000000000002
210
0
220
0
230
1
0
CIRCLE
5
110
100
AcDbEntity
8
0
100
AcDbCircle
10
-52.349999999999994
20
-24.000000000000004
30
0
40
1.5000000000000002
210
0
220
0
230
1
0
CIRCLE
5
111
100
AcDbEntity
8
0
100
AcDbCircle
10
-52.349999999999994
20
-50.200000000000003
30
0
40
1.5000000000000002
210
0
220
0
230
1
0
CIRCLE
5
112
100
AcDbEntity
8
0
100
AcDbCircle
10
-31.849999999999994
20
-50.200000000000003
30
0
40
1.5000000000000002
210
0
220
0
230
1
0
LWPOLYLINE
5
113
100
AcDbEntity
8
0
100
AcDbPolyline
90
4
70
1
43
0.0
10
-34.999999999999993
20
-67.015000000000015
10
-49.170000000000002
20
-67.015000000000015
10
-49.170000000000002
20
-63.015000000000008
10
-34.999999999999993
20
-63.015000000000008
0
LWPOLYLINE
5
114
100
AcDbEntity
8
0
100
AcDbPolyline
90
4
70
1
43
0.0
10
-24.350000000000001
20
-18.850000000000005
10
-59.850000000000001
20
-18.850000000000005
10
-59.850000000000001
20
-0.85000000000000631
10
-24.350000000000001
20
-0.85000000000000631
0
LWPOLYLINE
5
115
100
AcDbEntity
8
0
100
AcDbPolyline
90
4
70
1
43
0.0
10
-4.8500000000000014
20
-54.892000000000003
10
-11.550000000000002
20
-54.892000000000003
10
-11.550000000000002
20
-49.892000000000003
10
-4.8500000000000014
20
-49.892000000000003
0
LWPOLYLINE
5
116
100
AcDbEntity
8
0
100
AcDbPolyline
90
4
70
1
43
0.0
10
9.0000000000000036
20
-8
10
9.0000000000000036
20
-20
10
-0.99999999999999645
20
-20
10
9.0000000000000036
20
-20
0
LWPOLYLINE
5
117
100
AcDbEntity
8
0
100
AcDbPolyline
90
4
70
1
43
0.0
10
-4.8500000000000014
20
-54.892000000000003
10
-11.550000000000002
20
-54.892000000000003
10
-11.550000000000002
20
-49.892000000000003
10
-4.8500000000000014
20
-49.892000000000003
0
LWPOLYLINE
5
118
100
AcDbEntity
8
0
100
AcDbPolyline
90
4
70
1
43
0.0
10
-24.350000000000001
20
-18.850000000000005
10
-26.350000000000001
20
-18.850000000000005
10
-26.350000000000001
20
-6.6500000000000021
10
-24.350000000000001
20
-6.6500000000000021
0
LWPOLYLINE
5
119
100
AcDbEntity
8
0
100
AcDbPolyline
90
4
70
1
43
0.0
10
72
20
-77.391999999999996
10
-72
20
-77.391999999999996
10
-72
20
0
10
72
20
0
0
CIRCLE
5
120
100
AcDbEntity
8
0
100
AcDbCircle
10
70.25
20
-58.044000000000004
30
0
40
1.5000000000000002
210
0
220
0
230
1
0
CIRCLE
5
121
100
AcDbEntity
8
0
100
AcDbCircle
10
-70.25
20
-58.044000000000004
30
0
40
1.5000000000000002
210
0
220
0
230
1
0
ENDSEC
0
SECTION
2
OBJECTS
0
DICTIONARY
5
C
100
AcDbDictionary
3
ACAD_GROUP
350
D
3
ACAD_MLINESTYLE
350
17
0
DICTIONARY
5
D
100
AcDbDictionary
0
DICTIONARY
5
1A
330
C
100
AcDbDictionary
0
DICTIONARY
5
17
100
AcDbDictionary
0
ENDSEC
0
EOF
